<svg width="30" height="30" xmlns="http://www.w3.org/2000/svg"><g fill="#8F96A3" fill-rule="nonzero"><path d="M28.585 8.822L14.903 1.384 1.166 8.822l13.737 7.437 13.682-7.437zm-13.92 8.446L-.122 9.262a.5.5 0 0 1 0-.88L14.665.376a.5.5 0 0 1 .477 0l14.729 8.007a.5.5 0 0 1 0 .878l-14.729 8.006a.5.5 0 0 1-.477 0zM25.135 15.76a.5.5 0 1 1 1 0v4.106a.5.5 0 0 1-.261.44l-10.732 5.821a.5.5 0 1 1-.477-.879l10.47-5.68v-3.809z"/><path d="M15.14 25.247a.5.5 0 1 1-.473.881l-10.84-5.822a.5.5 0 0 1-.262-.44v-4.107a.5.5 0 1 1 1 0v3.808l10.575 5.68zM14.661 9.128a.5.5 0 0 1 .484-.875l7.52 4.163a.5.5 0 0 1 .258.437v11.869a.5.5 0 1 1-1 0V13.148l-7.262-4.02z"/><path d="M21.98 24.49a.5.5 0 0 1 .885 0l2.594 4.93a.5.5 0 0 1-.443.733H19.84a.5.5 0 0 1-.443-.732l2.584-4.931zm-1.315 4.663h3.523l-1.765-3.355-1.758 3.355z"/></g></svg>