<svg width="21" height="21" viewBox="0 0 22 21" xmlns="http://www.w3.org/2000/svg"><g fill="none" fill-rule="evenodd"><path fill="#FFF" d="M-476-194H890v2598H-476z"/><g fill-rule="nonzero" fill="#8F96A3"><path d="M11.036 10.949l9.213-5.008L11.036.932l-9.25 5.009 9.25 5.008zm-.16.68L.918 6.236a.337.337 0 0 1 0-.592L10.876.253a.337.337 0 0 1 .32 0l9.92 5.392a.337.337 0 0 1 0 .591l-9.92 5.392a.337.337 0 0 1-.32 0z"/><path d="M18.597 9.323a.337.337 0 1 1 .323-.59l2.196 1.199a.337.337 0 0 1 0 .591l-9.92 5.392a.337.337 0 0 1-.32 0L.918 10.523a.337.337 0 0 1 0-.592l2.209-1.2a.337.337 0 0 1 .321.593l-1.663.903 9.25 5.009 9.216-5.01-1.654-.903z"/><path d="M18.597 13.61a.337.337 0 0 1 .322-.591l2.196 1.193a.337.337 0 0 1 0 .591l-9.918 5.392a.337.337 0 0 1-.321 0L.918 14.804a.337.337 0 0 1 0-.593l2.21-1.193a.337.337 0 0 1 .32.593l-1.662.897 9.25 5.008 9.213-5.008-1.652-.898z"/></g></g></svg>