<svg width="21" height="21" xmlns="http://www.w3.org/2000/svg"><g fill="#8F96A3" fill-rule="nonzero"><path d="M20.463 8.191c.181 0 .328.147.328.328v4.348h-.328v.322h-1.677a8.46 8.46 0 0 1-.592 1.388l1.198 1.198a.328.328 0 0 1 0 .464l-3.076 3.077a.328.328 0 0 1-.465 0l-1.239-1.24a8.1 8.1 0 0 1-1.34.549v1.762a.328.328 0 0 1-.329.328H8.596a.328.328 0 0 1-.329-.328v-1.784a8.322 8.322 0 0 1-1.328-.545l-1.257 1.258a.328.328 0 0 1-.465 0l-3.076-3.077a.328.328 0 0 1 0-.464l1.223-1.223a8.169 8.169 0 0 1-.573-1.356H1.076a.328.328 0 0 1-.328-.329V8.52c0-.18.147-.328.328-.328h1.702c.152-.475.344-.935.575-1.374L2.147 5.612a.328.328 0 0 1 0-.465l3.077-3.076a.328.328 0 0 1 .464 0l1.225 1.225c.424-.22.876-.405 1.354-.552V1c0-.181.147-.328.329-.328h4.347c.182 0 .329.147.329.328v1.737c.48.146.94.33 1.371.548l1.215-1.214a.328.328 0 0 1 .464 0l3.076 3.076a.328.328 0 0 1 0 .465L18.22 6.79c.237.443.435.914.588 1.4h1.656zm0 4.67h-.329v.006h.329v-.006zm-.329-4.013h-1.572a.328.328 0 0 1-.316-.24 7.595 7.595 0 0 0-.718-1.711.328.328 0 0 1 .052-.396l1.122-1.122-2.612-2.612-1.154 1.154a.328.328 0 0 1-.39.056 7.89 7.89 0 0 0-1.69-.677.328.328 0 0 1-.241-.317V1.328h-3.69V2.99a.328.328 0 0 1-.241.316 7.44 7.44 0 0 0-1.668.681.328.328 0 0 1-.394-.053L5.456 2.767 2.844 5.38 3.99 6.527a.328.328 0 0 1 .054.393 7.89 7.89 0 0 0-.708 1.69.328.328 0 0 1-.316.238H1.405v3.69h1.629a.33.33 0 0 1 .316.238 7.5 7.5 0 0 0 .706 1.669.328.328 0 0 1-.052.396l-1.167 1.166L5.45 18.62l1.198-1.198a.328.328 0 0 1 .393-.054c.505.282 1.058.51 1.646.676.14.04.238.17.238.316v1.7h3.691v-1.681c0-.148.1-.278.243-.317a7.445 7.445 0 0 0 1.655-.676.328.328 0 0 1 .392.055l1.178 1.18 2.612-2.613-1.14-1.14a.328.328 0 0 1-.053-.396c.308-.536.55-1.104.726-1.703a.328.328 0 0 1 .315-.236h1.591V8.848z"/><path d="M10.852 13.808a2.956 2.956 0 1 1 0-5.911 2.956 2.956 0 0 1 0 5.91zm0-.657a2.299 2.299 0 1 0 0-4.598 2.299 2.299 0 0 0 0 4.598z"/></g></svg>