<svg width="30" height="30" xmlns="http://www.w3.org/2000/svg"><g fill="#8F96A3" fill-rule="nonzero"><path d="M27 27.274a.5.5 0 0 0 0 1h1.884a.5.5 0 0 0 .5-.5V3a.5.5 0 0 0-.5-.5H27a.5.5 0 0 0 0 1h1.384v23.774H27zM22 27.274a.5.5 0 0 0 0 1h1.884a.5.5 0 0 0 .5-.5V3a.5.5 0 0 0-.5-.5H22a.5.5 0 1 0 0 1h1.384v23.774H22zM9.739 16.197c-3.482 0-6.307-2.801-6.307-6.258S6.257 3.68 9.74 3.68s6.306 2.8 6.306 6.258c0 3.457-2.824 6.258-6.306 6.258zm0-1c2.931 0 5.306-2.355 5.306-5.258S12.67 4.68 9.74 4.68c-2.932 0-5.307 2.355-5.307 5.258s2.375 5.258 5.307 5.258z"/><path d="M18.868.568H.688v28.39h18.18V.568zm.5 29.39H.188a.5.5 0 0 1-.5-.5V.068a.5.5 0 0 1 .5-.5h19.18a.5.5 0 0 1 .5.5v29.39a.498.498 0 0 1-.5.5z"/></g></svg>