<svg width="30" height="30" xmlns="http://www.w3.org/2000/svg"><g fill="#8F96A3" fill-rule="nonzero"><path d="M.616 29.016h13.165a.5.5 0 0 1 0 1H.116a.5.5 0 0 1-.5-.5V0a.5.5 0 0 1 .5-.5h22.132a.5.5 0 0 1 .5.5v2.555a.5.5 0 1 1-1 0V.5H.616v28.516z"/><path d="M22.258 22.623c-4.354 0-7.884-3.535-7.884-7.894 0-4.36 3.53-7.894 7.884-7.894 4.354 0 7.884 3.535 7.884 7.894 0 4.36-3.53 7.894-7.884 7.894zm0-1c3.802 0 6.884-3.087 6.884-6.894s-3.082-6.894-6.884-6.894c-3.802 0-6.884 3.087-6.884 6.894s3.082 6.894 6.884 6.894z"/><path d="M25.445 21.135a.5.5 0 1 1 1 0v8.381a.5.5 0 0 1-.733.442l-3.454-1.822-3.464 1.823a.5.5 0 0 1-.733-.443v-8.38a.5.5 0 1 1 1 0v7.552l2.964-1.56a.5.5 0 0 1 .466 0l2.954 1.559v-7.552z"/></g></svg>