<svg width="21" height="21" xmlns="http://www.w3.org/2000/svg"><g fill="#8F96A3"><path d="M20.463 8.191c.181 0 .328.147.328.328v4.348a.328.328 0 0 1-.328.329h-1.92a.328.328 0 1 1 0-.657h1.591V8.848h-1.572a.328.328 0 0 1-.316-.24 7.595 7.595 0 0 0-.718-1.711.328.328 0 0 1 .052-.396l1.122-1.122-2.612-2.612-1.154 1.154a.328.328 0 0 1-.39.056 7.89 7.89 0 0 0-1.69-.677.328.328 0 0 1-.241-.317V1.328h-3.69V2.99a.328.328 0 0 1-.241.316 7.44 7.44 0 0 0-1.668.681.328.328 0 0 1-.394-.053L5.456 2.767 2.844 5.38 3.99 6.527a.328.328 0 0 1 .054.393 7.89 7.89 0 0 0-.708 1.69.328.328 0 0 1-.316.238H1.405v3.69h1.629a.33.33 0 0 1 .316.238 7.5 7.5 0 0 0 .706 1.669.328.328 0 0 1-.052.396l-1.167 1.166L5.45 18.62l1.198-1.198a.328.328 0 0 1 .393-.054c.505.282 1.058.51 1.646.676.14.04.238.17.238.316v1.7h3.691v-1.681a.328.328 0 1 1 .657 0v2.009a.328.328 0 0 1-.329.328H8.596a.328.328 0 0 1-.329-.328v-1.784a8.322 8.322 0 0 1-1.328-.545l-1.257 1.258a.328.328 0 0 1-.465 0L2.141 16.24a.328.328 0 0 1 0-.464l1.223-1.223a8.169 8.169 0 0 1-.573-1.356H1.076a.328.328 0 0 1-.328-.329V8.52c0-.18.147-.328.328-.328h1.702c.152-.475.344-.935.575-1.374L2.147 5.612a.328.328 0 0 1 0-.465l3.077-3.076a.328.328 0 0 1 .464 0l1.225 1.225c.424-.22.876-.405 1.354-.552V1c0-.181.147-.328.329-.328h4.347c.182 0 .329.147.329.328v1.737c.48.146.94.33 1.371.548l1.215-1.214a.328.328 0 0 1 .464 0l3.076 3.076a.328.328 0 0 1 0 .465L18.22 6.79c.237.443.435.914.588 1.4h1.656z"/><path d="M20.695 17.11a.328.328 0 0 1-.464.464l-4.971-4.977a.328.328 0 0 1-.085-.317l.803-2.995-3.8-3.8-2.451.656 2.794 2.788a.328.328 0 0 1 .093.278l-.375 2.657a.328.328 0 0 1-.277.28l-2.682.4a.328.328 0 0 1-.281-.093l-2.77-2.775-.642 2.394 3.806 3.8 2.938-.79a.328.328 0 0 1 .317.085l4.99 4.99a.328.328 0 1 1-.465.464l-4.855-4.856-2.938.79a.328.328 0 0 1-.317-.085L4.989 12.4a.328.328 0 0 1-.086-.317l.84-3.127a.328.328 0 0 1 .549-.147l3.055 3.06 2.276-.34.318-2.251L8.86 6.203a.328.328 0 0 1 .147-.55l3.184-.851a.328.328 0 0 1 .317.085l4.068 4.068a.328.328 0 0 1 .085.317l-.802 2.995 4.836 4.843z"/></g></svg>